<?xml version="1.0" encoding="utf-8"?>
<!-- Generator: Adobe Illustrator 16.0.3, SVG Export Plug-In . SVG Version: 6.00 Build 0)  -->
<svg version="1.2" baseProfile="tiny" id="Ebene_1" xmlns="http://www.w3.org/2000/svg" xmlns:xlink="http://www.w3.org/1999/xlink"
	 x="0px" y="0px" width="595px" height="623px" viewBox="0 0 595 623" xml:space="preserve">
<path fill="#00305D" d="M41.396,219.804c5.616,1.8,11.736-1.296,13.608-6.984c1.8-5.688-1.296-11.808-6.984-13.608
	c-5.688-1.872-11.736,1.224-13.608,6.912C32.54,211.812,35.708,217.932,41.396,219.804z"/>
<path fill="#00305D" d="M35.924,353.364c5.904-0.937,9.936-6.408,9-12.313c-0.937-5.904-6.48-9.936-12.384-9
	c-5.904,0.937-9.936,6.48-9,12.384C24.476,350.34,30.02,354.3,35.924,353.364z"/>
<path fill="#F59C00" d="M105.188,476.34c5.544-10.943,1.224-24.336-9.72-29.951c-10.944-5.616-24.408-1.225-29.952,9.719
	c-5.616,11.017-1.224,24.336,9.72,29.953C86.252,491.676,99.644,487.356,105.188,476.34z"/>
<path fill="#00305D" d="M196.7,557.988c2.736-5.328,0.576-11.808-4.68-14.545c-5.4-2.735-11.88-0.575-14.616,4.752
	c-2.664,5.328-0.576,11.809,4.752,14.545C187.484,565.477,193.964,563.315,196.7,557.988z"/>
<path fill="#00305D" d="M327.813,584.269c0-5.977-4.824-10.801-10.801-10.801c-5.976,0-10.8,4.824-10.8,10.801
	c0,5.976,4.824,10.871,10.8,10.8C322.988,595.14,327.813,590.244,327.813,584.269z"/>
<path fill="#00305D" d="M155.372,64.428l-4.752,4.032l20.52,24.192c5.832,6.768,7.128,13.176,4.32,20.52
	c-1.512,3.6-3.888,6.984-6.984,9.648c-9.216,7.776-21.168,7.488-28.224-0.792l-22.104-25.92l-4.68,4.032l-2.016-2.304L126.5,84.948
	l2.016,2.376l-4.752,4.032l20.376,23.976c6.552,7.632,15.336,8.784,22.32,2.808c7.2-6.12,7.704-15.408,1.296-23.04L147.38,71.268
	l-4.752,4.032l-2.016-2.375l12.744-10.8L155.372,64.428z"/>
<path fill="#00305D" d="M229.172,83.292l-16.632,8.856l-1.44-2.736l5.544-2.952l-11.448-21.528c-2.088-3.888-5.328-5.256-8.568-3.6
	c-3.168,1.728-4.248,4.104-6.768,14.832l10.152,19.08l5.544-2.952l1.44,2.736l-16.632,8.856l-1.512-2.736l5.616-2.952L180.5,71.7
	l-6.408,3.384l-1.08-1.944l9.072-8.496l1.368-0.72l4.32,8.28c2.16-9.36,4.248-13.032,8.928-15.48
	c5.472-2.88,10.728-1.152,13.68,4.536l11.808,22.249l5.544-2.88L229.172,83.292z"/>
<path fill="#00305D" d="M223.7,25.476c2.376-0.792,4.824,0.432,5.544,2.664c0.864,2.376-0.36,4.824-2.736,5.616
	c-2.232,0.792-4.68-0.36-5.472-2.736C220.244,28.716,221.396,26.268,223.7,25.476L223.7,25.476z M251.492,76.38l-17.856,6.12
	l-1.008-2.88l6.048-2.088l-9.72-28.296l-6.912,2.376l-0.72-2.16l10.296-6.984l1.44-0.432l11.52,33.48l5.976-2.016L251.492,76.38z"/>
<polygon fill="#00305D" points="282.092,34.188 278.636,34.908 272.444,72.564 270.788,72.924 249.476,40.884 246.02,41.532 
	245.444,38.508 261.212,35.34 261.86,38.292 256.1,39.444 270.716,61.548 274.964,35.628 269.492,36.78 268.916,33.756 
	281.444,31.164 "/>
<path fill="#00305D" d="M321.044,60.252c-4.536,3.168-6.769,4.104-10.08,4.248c-1.584,0.072-3.168-0.216-4.536-0.72v4.536
	c0.792,0.072,1.656,0.144,2.521,0.072c4.824-0.216,7.704-1.296,13.824-5.112L321.044,60.252L321.044,60.252z M306.428,46.14
	l16.561-0.72l-0.072-2.232c-0.359-9-6.769-14.904-15.769-14.544c-0.216,0-0.504,0.072-0.72,0.072v3.528
	c0.288-0.072,0.648-0.072,0.937-0.072c4.824-0.216,8.424,3.24,8.64,8.208l0.072,2.016l-9.648,0.36V46.14z M306.428,63.78
	c-5.472-1.944-9.144-8.064-9.504-16.344V46.5l9.504-0.36v-3.384l-9.576,0.432c0.432-6.192,4.032-10.296,9.576-10.944v-3.528
	c-9.288,0.792-15.912,8.496-16.271,18.936v1.584c0,0.072,0,0.216,0.072,0.288c0.432,10.512,6.984,18,16.2,18.792V63.78z"/>
<path fill="#00305D" d="M348.403,69.18l-20.447-2.088l0.288-3.096l6.264,0.648l3.096-29.736l-7.2-0.792l0.217-2.232l12.24-2.016
	l1.512,0.216l-0.937,9.216c6.696-6.984,9.072-8.568,12.024-8.28c1.008,0.072,1.8,0.432,2.231,1.008l2.377,2.448l-5.4,5.328
	c-1.512-1.728-2.592-2.592-3.384-2.736c-1.512-0.144-3.168,1.152-8.28,6.192l-2.231,22.032l7.919,0.864L348.403,69.18z"/>
<path fill="#00305D" d="M361.796,72.132l-3.239-0.792l2.808-11.52l3.743,0.936l-0.575,2.16c-0.792,3.456,2.952,7.632,7.991,8.856
	c4.465,1.08,8.353-0.432,9.072-3.672c0.793-3.24-1.008-5.544-8.712-10.944c-6.983-4.896-9.071-8.568-7.776-13.608
	c1.513-6.336,7.633-9.36,15.049-7.56c3.6,0.864,6.119,2.376,7.92,4.824l1.224-2.808l3.456,0.864l-4.752,11.16l-3.527-0.864
	c0.575-0.792,1.008-1.8,1.151-2.52c0.792-3.168-2.231-6.624-6.624-7.704c-4.176-1.008-7.488,0.576-8.352,4.032
	c-0.792,3.528-0.36,4.032,8.495,10.368c7.128,5.112,9,8.352,7.776,13.536c-1.584,6.48-7.704,9.792-14.904,8.064
	c-4.535-1.152-7.704-3.024-9.504-5.76L361.796,72.132z"/>
<path fill="#00305D" d="M418.676,28.572c2.376,0.864,3.456,3.312,2.664,5.616c-0.937,2.304-3.384,3.456-5.688,2.52
	c-2.305-0.864-3.384-3.312-2.521-5.616C413.996,28.788,416.443,27.708,418.676,28.572L418.676,28.572z M407.731,85.524
	l-17.712-6.696l1.08-2.88l5.904,2.231l10.584-28.008l-6.769-2.592l0.792-2.088l12.385,1.224l1.368,0.504l-12.528,33.192l5.904,2.232
	L407.731,85.524z"/>
<path fill="#00305D" d="M432.644,93.876c-5.544,1.152-7.344,1.008-10.151-0.36c-4.248-2.16-5.544-6.12-3.24-10.656L430.7,59.892
	l-6.48-3.24l1.009-2.017l7.271,1.584l5.184-10.296l5.328,2.736l-5.256,10.44l9.217,4.608l-1.657,3.456l-9.216-4.608l-11.16,22.32
	c-1.439,2.808-1.008,4.32,1.44,5.544c1.584,0.792,2.736,1.008,5.977,0.792L432.644,93.876z"/>
<path fill="#00305D" d="M455.9,103.452c-1.368,0.144-2.521,0.288-3.601,0.288v2.88c0.648-0.072,1.224-0.288,1.872-0.432
	c-0.216,0.216-0.359,0.432-0.504,0.648c-1.729,2.52-1.584,4.896,0.576,6.408c0.575,0.36,1.656,0.792,2.736,1.152l5.615,1.728
	l1.297-1.944l-5.328-3.672l14.543-21.096c3.097-4.536,1.225-10.224-4.823-14.4c-6.265-4.32-12.888-4.536-15.624-0.503
	c-0.145,0.216-0.217,0.36-0.36,0.503v1.944l6.912,2.232l2.304-3.312c2.664,0.432,3.673,0.864,5.041,1.8
	c2.735,1.872,3.455,5.256,1.583,7.992l-5.327,7.776L452.3,89.268v3.6l8.568,3.312L455.9,103.452L455.9,103.452z M471.38,64.716
	c1.296-1.944,0.936-4.537-1.008-5.833c-1.944-1.296-4.536-0.792-5.832,1.152c-1.296,1.8-0.864,4.464,1.08,5.76
	C467.492,67.092,470.156,66.588,471.38,64.716L471.38,64.716z M483.548,73.068c-1.296,1.872-3.888,2.376-5.832,1.08
	c-1.872-1.296-2.304-3.96-1.008-5.76c1.296-1.943,3.888-2.52,5.832-1.151C484.412,68.532,484.844,71.124,483.548,73.068z
	 M452.3,103.74c-2.592,0.072-4.319-0.36-5.903-1.44c-2.881-2.016-3.457-5.112-1.44-7.992l2.304-3.456l5.04,2.016v-3.6l-3.096-1.224
	c-3.815-1.512-8.064-0.144-10.439,3.312c-3.169,4.608-1.945,10.296,2.808,13.536c3.24,2.232,6.408,2.736,10.728,1.728V103.74
	L452.3,103.74z M452.3,75.012v1.944l-0.36-0.144C451.939,75.948,452.084,75.516,452.3,75.012z"/>
<path fill="#00305D" d="M482.18,131.46c-5.615-0.36-7.344-0.864-9.647-2.952c-3.601-3.168-3.816-7.344-0.433-11.16l17.136-19.152
	l-5.399-4.824l1.512-1.728l6.625,3.528l7.632-8.568l4.464,3.96l-7.849,8.712l7.704,6.912l-2.521,2.88l-7.703-6.912l-16.632,18.648
	c-2.088,2.304-2.088,3.96,0,5.76c1.296,1.152,2.304,1.656,5.543,2.304L482.18,131.46z"/>
<path fill="#00305D" d="M90.932,343.788l-3.96-20.16l3.024-0.576l1.152,6.12l47.88-9.432l-1.224-6.12l3.024-0.576l4.608,23.328
	c1.872,9.433-3.24,17.208-12.384,19.008c-9.144,1.872-17.784-4.536-19.728-14.615c-0.36-1.584-0.432-2.521-0.432-4.681l2.88-0.576
	c-0.072,1.08,0,1.512,0.144,2.232c1.368,7.056,8.424,11.664,15.696,10.224c6.552-1.296,10.872-6.624,9.864-12.024l-1.8-8.855
	l-47.088,9.288l1.368,6.912L90.932,343.788z"/>
<path fill="#00305D" d="M123.404,402.468c2.448-0.144,4.968-0.792,7.416-1.871c10.008-4.465,14.832-15.553,10.728-24.696
	c-3.096-6.984-10.44-10.873-18.144-10.368v6.84c6.768-1.584,12.888,0.288,14.976,4.968c2.52,5.688-2.016,13.032-10.44,16.848
	c-1.512,0.648-3.024,1.152-4.536,1.513V402.468z M105.26,392.101c3.096,6.983,10.44,10.8,18.144,10.367V395.7
	c-6.768,1.512-12.888-0.36-14.976-5.04c-2.52-5.688,2.088-13.032,10.44-16.776c1.512-0.648,3.024-1.152,4.536-1.512v-6.84
	c-2.448,0.144-4.968,0.72-7.416,1.8C105.98,371.796,101.156,382.884,105.26,392.101z"/>
<path fill="#00305D" d="M136.94,436.812c-5.4-1.655-6.984-2.592-8.712-5.111c-2.736-3.96-1.944-8.064,2.232-10.944l21.168-14.616
	l-4.104-5.904l1.872-1.296l5.616,4.896l9.432-6.479l3.384,4.896l-9.648,6.696l5.832,8.495l-3.096,2.16l-5.904-8.496l-20.52,14.185
	c-2.592,1.8-2.952,3.312-1.368,5.616c0.936,1.368,1.872,2.088,4.824,3.456L136.94,436.812z"/>
<path fill="#00305D" d="M143.852,451.644l-2.304-2.375l8.496-8.208l2.664,2.735l-1.656,1.513c-2.592,2.52-1.584,8.063,2.016,11.735
	c3.168,3.313,7.272,4.104,9.648,1.8s2.088-5.256-1.512-13.896c-3.384-7.921-3.096-12.096,0.648-15.696
	c4.68-4.536,11.52-3.816,16.848,1.656c2.52,2.664,3.816,5.327,4.032,8.279l2.52-1.728l2.52,2.592l-10.008,6.912l-2.52-2.592
	c0.936-0.36,1.8-1.008,2.376-1.512c2.304-2.304,1.584-6.841-1.512-10.08c-3.024-3.096-6.624-3.528-9.216-1.008
	c-2.592,2.52-2.448,3.167,1.584,13.247c3.384,8.137,3.168,11.881-0.648,15.624c-4.824,4.608-11.736,4.176-16.848-1.224
	c-3.24-3.313-4.896-6.552-4.968-9.863L143.852,451.644z"/>
<path fill="#00305D" d="M208.148,497.076l-6.048-4.104l31.824-46.873l-1.296-0.936l-11.736-4.032l-1.296,1.872l5.976,4.032
	l-10.8,15.983c-1.656-3.167-2.664-4.392-5.04-5.976c-3.456-2.304-7.416-3.384-11.376-3.239v4.752
	c3.384-0.864,6.984-0.288,10.224,1.943c4.032,2.735,4.464,5.111,1.584,9.36l-10.872,15.983c-0.288,0-0.648,0.072-0.936,0.072v10.08
	l8.424,2.952L208.148,497.076z M198.356,453.805c-6.336,0.215-12.6,3.527-16.488,9.359c-2.376,3.456-3.6,7.128-3.888,10.729v2.88
	c0.36,4.463,2.376,8.423,5.976,10.871c3.528,2.376,6.768,2.736,13.104,1.513l-3.24,4.824l1.296,0.863l3.24,1.152v-10.08
	c-0.936,0.072-1.656,0.145-2.088,0.145c-3.672,0.287-5.04,0-7.128-1.513c-5.688-3.816-5.904-10.729-0.648-18.432
	c2.736-4.032,6.192-6.624,9.864-7.56V453.805z"/>
<path fill="#00305D" d="M249.188,514.932l-5.976-2.375l9.504-23.761c0.36-0.864,0.576-1.728,0.576-2.52v-1.225
	c-0.288-3.743-3.312-7.199-8.424-9.287c-4.032-1.584-7.92-1.872-10.8-1.009v6.841l2.88,0.215l1.512-3.672
	c2.664-0.216,3.744,0,5.256,0.576c3.096,1.224,4.536,4.392,3.312,7.488l-3.456,8.784l-9.504-1.512v3.312l8.28,1.224l-3.312,8.208
	c-2.016,0.72-3.6,1.224-4.968,1.44v3.384c1.224-0.433,2.52-1.008,3.888-1.8c-0.144,0.359-0.216,0.575-0.36,0.792
	c-1.08,2.88-0.432,5.111,2.016,6.12c0.576,0.216,1.8,0.432,2.88,0.504l5.832,0.432L249.188,514.932z M234.068,474.756
	c-2.16,0.721-3.816,2.017-4.536,3.96c-0.36,0.864-0.432,1.224-0.288,2.376l4.824,0.505V474.756L234.068,474.756z M234.068,493.477
	l-4.968-0.792c-4.032-0.648-7.848,1.584-9.432,5.543c-2.088,5.185,0.432,10.44,5.688,12.601c2.952,1.152,5.688,1.296,8.712,0.216
	v-3.384c-1.728,0.216-3.168,0.071-4.536-0.504c-3.24-1.225-4.464-4.176-3.24-7.416l1.584-3.888l6.192,0.936V493.477z"/>
<path fill="#00305D" d="M329.036,530.772l-18.721-1.8l0.36-3.097l6.264,0.576l2.376-24.192c0.433-4.536-1.584-7.271-5.184-7.632
	c-2.735-0.288-5.04,0.72-8.928,4.177l-4.896,4.319l-2.089,21.528l6.192,0.647l-0.288,3.024l-18.648-1.801l0.288-3.096l6.192,0.648
	l2.448-24.265c0.432-4.392-1.584-7.344-5.256-7.704c-3.528-0.359-5.76,1.009-13.752,8.568l-2.088,21.528l6.264,0.648l-0.288,3.023
	l-18.792-1.8l0.288-3.096l6.264,0.647l2.952-29.809l-7.2-0.72l0.216-2.231l12.24-2.088l1.44,0.144l-0.864,9.288
	c6.912-6.624,10.728-8.496,15.984-7.992c5.904,0.576,8.711,3.961,8.928,10.44c6.912-6.624,10.728-8.496,15.912-7.992
	c6.12,0.647,9.576,4.968,8.928,11.232l-2.448,25.2l6.192,0.575L329.036,530.772z"/>
<path fill="#00305D" d="M542.084,397.572v-51.841h5.473V277.62h-5.473v-15.696h16.92v135.648H542.084L542.084,397.572z
	 M542.084,255.588v-8.928h14.04c-0.433-1.152-0.72-2.88-0.72-4.752c0-3.528,1.008-6.48,2.231-6.48c1.152,0,2.16,2.952,2.16,6.48
	c0,1.872-0.36,3.528-0.792,4.752v8.928H542.084z M542.084,246.66v8.928h-22.32v-8.928h16.488c-0.433-1.152-0.72-2.88-0.72-4.752
	c0-3.528,1.008-6.48,2.159-6.48c1.225,0,2.232,2.952,2.232,6.48c0,1.872-0.288,3.6-0.72,4.752H542.084L542.084,246.66z
	 M542.084,261.924v15.696h-5.4v68.111h5.4v51.841h-5.4c-2.16,5.4-8.063,10.439-16.92,14.615v-22.248
	c9.864-4.535,16.488-10.224,16.561-16.848c0.072-6.264-6.12-12.168-16.561-16.992v-10.368h5.472V277.62h-5.472v-15.696H542.084
	L542.084,261.924z M519.764,245.652c0.217-1.08,0.432-2.376,0.432-3.744c0-1.368-0.215-2.664-0.432-3.672V245.652z M519.764,238.236
	v7.416c-0.072,0.36-0.216,0.72-0.287,1.008h0.287v8.928H496.58v-8.928h0.216c-0.072-0.216-0.144-0.504-0.216-0.792v-7.92
	c0.359-1.512,1.008-2.52,1.655-2.52c1.225,0,2.232,2.952,2.232,6.48c0,1.872-0.288,3.6-0.72,4.752h16.775
	c-0.432-1.152-0.719-2.88-0.719-4.752c0-3.528,0.936-6.48,2.159-6.48C518.684,235.428,519.332,236.58,519.764,238.236
	L519.764,238.236z M519.764,261.924v15.696h-5.472v68.111h5.472V356.1c-6.336-2.952-14.184-5.472-23.184-7.56v-2.809h6.336V277.62
	h-6.336v-15.696H519.764L519.764,261.924z M519.764,389.939v22.248c-6.336,3.097-14.184,5.688-23.184,7.849v-22.68
	C505.076,395.484,513.14,392.964,519.764,389.939L519.764,389.939z M496.58,386.916v-27.432c9.216,3.527,15.695,8.136,15.695,13.68
	C512.275,378.42,506.372,383.172,496.58,386.916z M424.364,345.731V277.62H413.42v68.111H424.364L424.364,345.731z M496.58,237.948
	v7.92c-0.288-1.08-0.504-2.448-0.504-3.96C496.076,240.468,496.292,239.028,496.58,237.948L496.58,237.948z M496.58,246.66h-15.696
	v-23.976h-5.399c-0.648-1.656-1.656-4.608-1.512-7.992c0.504-17.28-8.784-31.608-29.305-32.328c0.359-1.152,0.647-2.736,0.647-4.464
	c0-3.528-1.008-6.48-2.231-6.48s-2.231,2.952-2.231,6.48c0,1.728,0.216,3.312,0.575,4.464c-20.447,0.72-29.808,15.048-29.232,32.328
	c0.073,3.384-0.863,6.336-1.512,7.992h-5.399v23.976h-15.696v8.928h15.696l37.8-20.232l37.729,20.232h-75.528v6.192h75.6v-6.192
	h15.696V246.66L496.58,246.66z M496.58,261.924v15.696h-4.536v68.111h4.536v2.809c-4.969-1.08-10.152-2.017-15.696-2.809v-83.808
	H496.58L496.58,261.924z M496.58,359.484v27.432c-4.536,1.728-9.792,3.168-15.768,4.393v-36.217
	C486.5,356.244,491.9,357.685,496.58,359.484L496.58,359.484z M496.58,397.356v22.68c-4.969,1.151-10.224,2.159-15.768,2.952
	v-22.753C486.14,399.516,491.396,398.58,496.58,397.356L496.58,397.356z M389.588,420.036v-22.68
	c5.185,1.224,10.439,2.159,15.696,2.879v22.753C399.74,422.195,394.484,421.188,389.588,420.036L389.588,420.036z M389.588,386.916
	v-27.432c4.681-1.8,10.08-3.24,15.696-4.393v36.217C399.38,390.084,394.052,388.644,389.588,386.916L389.588,386.916z
	 M389.588,348.54v-2.809h4.536V277.62h-4.536v-15.696h15.696v83.808C399.74,346.523,394.484,347.46,389.588,348.54L389.588,348.54z
	 M389.588,245.868v-7.848c0.288,1.08,0.504,2.448,0.504,3.888C390.092,243.42,389.876,244.788,389.588,245.868L389.588,245.868z
	 M453.523,345.731V277.62h-20.88v68.111H453.523L453.523,345.731z M411.908,391.309h62.352v-36.433h-62.352V391.309L411.908,391.309
	z M472.748,345.731V277.62h-10.943v68.111H472.748z M389.588,238.02v7.848c-0.072,0.288-0.145,0.504-0.216,0.792h0.216v8.928
	h-23.185v-8.928h0.288c-0.144-0.288-0.215-0.648-0.288-1.008v-7.416c0.361-1.656,1.009-2.808,1.801-2.808
	c1.152,0,2.16,2.952,2.16,6.48c0,1.872-0.288,3.6-0.721,4.752h16.776c-0.432-1.152-0.72-2.88-0.72-4.752
	c0-3.528,1.008-6.48,2.16-6.48C388.58,235.428,389.229,236.436,389.588,238.02L389.588,238.02z M389.588,261.924v15.696h-6.408
	v68.111h6.408v2.809c-9,2.088-16.92,4.607-23.185,7.56v-10.368h5.401V277.62h-5.401v-15.696H389.588L389.588,261.924z
	 M389.588,359.484v27.432c-9.792-3.744-15.695-8.496-15.695-13.752C373.893,367.62,380.372,363.012,389.588,359.484L389.588,359.484
	z M389.588,397.356v22.68c-9-2.16-16.848-4.752-23.185-7.849v-22.248C373.027,392.964,381.092,395.484,389.588,397.356z
	 M366.403,238.236v7.416c-0.287-1.08-0.431-2.376-0.431-3.744C365.973,240.54,366.116,239.316,366.403,238.236L366.403,238.236z
	 M366.403,246.66h-16.487c0.432-1.152,0.72-2.88,0.72-4.752c0-3.528-1.008-6.48-2.232-6.48c-1.151,0-2.159,2.952-2.159,6.48
	c0,1.872,0.288,3.6,0.72,4.752h-2.952v8.928h22.392V246.66L366.403,246.66z M366.403,261.924v15.696h-5.472v68.111h5.472V356.1
	c-10.511,4.824-16.631,10.729-16.56,16.992c0.072,6.624,6.696,12.313,16.56,16.848v22.248c-8.855-4.176-14.76-9.215-16.919-14.615
	h-5.473v-51.841h5.473V277.62h-5.473v-15.696H366.403z M344.012,246.66v8.928h-16.92v-8.928c-0.432-1.224-0.72-2.88-0.72-4.752
	c0-3.528,1.008-6.48,2.16-6.48c1.224,0,2.232,2.952,2.232,6.48c0,1.872-0.288,3.6-0.721,4.752H344.012L344.012,246.66z
	 M344.012,261.924v15.696h-5.4v68.111h5.4v51.841h-16.92V261.924H344.012z"/>
</svg>
